<?xml version="1.0" standalone="no"?><!DOCTYPE svg PUBLIC "-//W3C//DTD SVG 1.1//EN" "http://www.w3.org/Graphics/SVG/1.1/DTD/svg11.dtd"><svg t="1618482101254" class="icon" viewBox="0 0 1024 1024" version="1.1" xmlns="http://www.w3.org/2000/svg" p-id="1630" xmlns:xlink="http://www.w3.org/1999/xlink" width="200" height="200"><defs><style type="text/css"></style></defs><path d="M386.896 811.146c16.757 4.449 34.847-1.319 44.659-15.425 10.361-14.894 8.82-34.459-2.172-48.548-5.749-7.368-6.392-17.224-1.545-24.692l26.883-41.419-30.743-19.954-37.195 57.307c-4.847 7.468-14.111 10.894-23.182 8.644-17.344-4.303-35.84 2.256-45.225 17.785-3.415 5.651-5.207 11.917-5.503 18.257 13.703 3.665 28.224 0.507 38.471-8.545 0.848-0.749 2.146-0.795 3.144-0.146 0.999 0.648 1.486 1.852 1.147 2.931-5.396 17.191 1.572 36.992 18.12 47.893M738.675 322.538c3.415-5.651 5.207-11.917 5.504-18.257-13.704-3.665-28.225-0.507-38.472 8.544-0.848 0.75-2.145 0.796-3.144 0.147-0.999-0.648-1.486-1.852-1.147-2.932 5.396-17.19-1.572-36.991-18.121-47.892a39.463 39.463 0 0 0-10.588 6.677c-0.848 0.75-2.145 0.796-3.144 0.147-0.999-0.648-1.486-1.852-1.147-2.932a39.27 39.27 0 0 0 1.739-9.803c-16.757-4.451-34.846 1.319-44.659 15.424-10.361 14.895-8.82 34.459 2.172 48.547 5.748 7.369 6.392 17.225 1.544 24.693l-22.798 35.126L675 425l14-23-37.882-23.529 19.15-29.504c4.847-7.468 14.111-10.894 23.182-8.644 17.344 4.303 35.84-2.257 45.225-17.785" fill="#CFCCB6" p-id="1631"></path><path d="M732.439 538.346c19.01-21.949 23.144-51.047 14.534-76.933a91.703 91.703 0 0 0-7.235-4.589c-40.273-22.948-72.851-41.153-94.648-55.305-21.601-14.025-51.054-36.058-88.094-63.274-43.282-31.801-103.55-18.489-125.128 27.625-16.087 34.381-33.442 69.516-44.923 87.219-11.604 17.892-36.944 48.453-62.038 77.453-18.987 21.944-23.108 51.022-14.502 76.892a91.962 91.962 0 0 0 7.257 4.602c39.955 22.756 72.099 40.701 93.716 54.726 21.81 14.152 51.729 36.514 89.1 63.962 43.261 31.774 103.502 18.486 125.088-27.591 16.271-34.735 33.87-70.336 45.49-88.224 11.495-17.698 36.528-47.865 61.384-76.563" fill="#B05F62" p-id="1632"></path><path d="M513 370c0 11.046-8.954 20-20 20s-20-8.954-20-20 8.954-20 20-20 20 8.954 20 20" fill="#D68B8F" p-id="1633"></path><path d="M587 587a8 8 0 1 1-16 0 8 8 0 0 1 16 0" fill="#8C4A4D" p-id="1634"></path><path d="M395 348c0 5.523-4.477 10-10 10s-10-4.477-10-10 4.477-10 10-10 10 4.477 10 10" fill="#5F4765" p-id="1635"></path><path d="M472.111 266.851c20.423 0.138 40.726 6.983 57.291 18.961 14.508 10.557 29.003 21.378 43.573 32.021l0.221 0.161c4.895-7.542 9.83-15.057 14.684-22.625 2.76-4.401 1.108-9.954-2.176-14.441-10.89-15.027-13.302-35.893-5.267-52.414 7.479-15.377 23.55-26.052 40.826-27.555 20.614-1.794 41.829 9.393 52.109 27.566 4.151 7.339 6.567 15.686 6.815 24.077 22.089-9.073 50.604-0.632 64.725 20.011 13.134 19.199 12.298 47.26-5.072 64.511-12.288 12.203-31.13 17.112-48.299 13.026-4.764-1.135-10.132 0.158-12.829 4.174l-14.699 22.648c15.844 9.102 31.785 18.112 47.683 27.167 26.149 14.96 45.34 42.526 48.923 72.651 2.873 24.158-4.496 49.267-20.401 67.848-19.483 22.579-39.176 45.002-56.427 69.341-19.787 27.916-33.465 59.931-48.409 91.773-7.4 15.767-18.89 29.417-33.444 38.502-31.993 19.971-76 17.336-107.1-5.265-14.785-10.822-29.413-21.674-44.162-32.438l-0.391-0.285c-4.724 7.278-9.56 14.486-14.171 21.837-2.644 4.314-1.153 9.77 2.082 14.144 11.024 15.062 13.47 36.07 5.417 52.623-7.434 15.281-23.342 25.934-40.531 27.527-20.718 1.919-42.071-9.275-52.403-27.54-4.147-7.331-6.521-15.646-6.815-24.073 0 0-4.578 1.822-9.053 2.743-21.21 4.361-44.642-5.582-56.508-24.016-14.009-21.765-9.733-54.201 13.582-69.465 12.033-7.878 27.578-9.851 41.367-6.634 4.544 1.015 9.582-0.542 12.156-4.463l14.032-21.618c-15.558-8.93-31.16-17.743-46.734-26.609-26.162-14.958-45.098-42.161-48.867-72.007-3.169-25.09 5.413-51.249 21.677-70.071 22.83-26.421 47.044-52.474 64.73-82.647a399.976 399.976 0 0 0 6.07-10.784l1.909-2.478c2.256-1.545 2.767-2.286 5.583-2.651 7.418-0.964 14.105 7.313 9.681 15.411-19.251 35.243-46.575 65.83-72.84 96.225-8.76 10.139-14.953 22.506-16.838 35.678-4.245 29.659 12.336 60.698 38.556 75.81 17.744 10.145 35.501 20.125 53.124 30.283l1.551 0.895c5.393 3.119 7.525 7.918 6.065 12.55-0.27 0.857-0.767 1.625-1.15 2.438l-19.801 30.508c-7.197 10.961-21.404 15.778-34.595 12.733-14.44-3.259-30.726 4.31-35.893 18.078-6.125 16.319 4.609 36.831 22.479 42.379 10.413 3.232 22.435 1.139 30.63-6.057 0 0 4.255-3.206 8.647-3.051 7.621 0.27 14.033 8.139 11.835 16.1-4.815 15.986 4.868 34.514 21.26 40.496 12.231 4.464 27.217 1.353 35.519-8.817 8.72-10.68 8.111-27.226-0.73-38.665-0.188-0.248-0.187-0.247-0.373-0.497-7.437-10.201-8.418-24.737-1.499-35.522l19.811-30.523c2.974-3.453 7.559-5.534 11.876-3.927 1.555 0.578 2.552 1.398 3.836 2.328 17.207 12.465 34.296 25.131 51.432 37.723 19.318 14.14 45.116 19.215 68.035 12.279 18.13-5.486 33.729-18.471 41.973-35.813 13.178-27.998 26.236-56.33 42.049-82.856 18.033-30.252 42.309-56.582 65.263-83.12 8.744-10.11 14.889-22.356 16.814-35.428 4.342-29.483-11.505-60.392-38.251-75.93-18.592-10.72-37.32-21.154-55.839-31.867-5.338-3.088-7.553-7.908-6.085-12.563 0.27-0.857 0.766-1.625 1.149-2.438l20.395-31.424c7.207-10.976 21.416-15.774 34.594-12.733 14.573 3.287 30.862-4.408 35.957-18.245 6.017-16.342-4.856-36.821-22.712-42.263-10.186-3.104-21.776-1.311-30.036 5.739-1.209 1.032-1.347 1.124-1.921 1.489-8.112 5.154-21.823-2.429-19.125-13.635 0.21-0.872 0.291-1.016 0.412-1.432 4.484-15.684-5.499-33.747-21.531-39.598-12.177-4.443-27.079-1.389-35.406 8.678-8.821 10.665-8.226 27.359 0.617 38.804 0.189 0.249 0.188 0.248 0.374 0.498 7.442 10.213 8.414 24.738 1.498 35.52l-20.384 31.406c-2.992 3.474-7.606 5.519-11.88 3.926-1.55-0.578-2.531-1.385-3.809-2.311-16.972-12.309-33.706-24.762-50.676-37.191-26.691-19.423-65.886-20.778-91.934 0.679a66.784 66.784 0 0 0-12.39 13.479l-0.14 0.203c-1.883 1.982-2.228 2.812-4.906 3.758-6.72 2.374-15.184-4.644-12.917-12.276 1.148-3.866 4.193-6.893 6.899-10.06 16.889-19.762 42.984-31.024 69.055-31.085l0.578 0.001z" fill="#5F4765" p-id="1636"></path><path d="M464.626 400.01c12.469 0.656 22.24 13.437 18.355 26.327a85.58 85.58 0 0 1-0.577 1.845c-6.557 20.221-17.736 38.673-29.418 56.661-8.832 13.6-18.279 26.811-28.846 39.074-6.039 7.007-16.181 9.966-24.29 6.347-11.008-4.912-15.505-20.705-7.471-30.753 2.194-2.745 3.339-3.905 4.686-5.546 16.185-19.718 30.441-41.379 41.442-64.112 2.398-4.956 4.662-9.994 6.235-15.256 0 0 0.912-2.896 2.112-4.893 3.198-5.326 8.995-9.011 15.228-9.612 1.644-0.158 2.023-0.087 2.544-0.082z" fill="#D68B8F" p-id="1637"></path><path d="M692.11 489.077c5.121 0.968 8.421 6.853 6.014 11.563-0.886 1.733-2.237 2.697-4.657 4.217-11.176 7.094-20.158 17.273-28.359 27.923-19.715 25.602-32.359 56.074-43.267 85.887-8.208 22.387-15.501 45.801-29.266 64.948a59.429 59.429 0 0 1-2.003 2.633c-3.249 4.024-7.126 7.669-11.996 9.326l-0.731 0.21c-2.442 0.458-3.185 0.225-4.502-0.238-4.025-1.417-6.432-6.432-4.754-10.559 1.369-3.369 5.429-4.444 7.618-6.635 4.828-4.833 8.018-11.167 11.141-17.423 16.526-33.103 25.09-69.953 42.517-102.644 11.517-21.605 25.566-42.281 43.656-58.268 4.578-4.046 9.265-8.618 14.836-10.568 1.19-0.416 2.471-0.489 3.753-0.372zM568.837 608.538c1.533 0.081 2.032 0.264 2.913 0.641 3.766 1.612 5.788 6.291 4.279 10.329-5.795 14.471-12.143 29.188-22.316 40.366-4.548 4.997-10.324 10.36-15.841 8.838-3.952-1.09-6.656-5.575-5.632-9.658 0.613-2.447 2.626-4.186 4.736-5.593 8.269-5.584 13.025-15.243 17.424-24.351 2.385-4.938 4.538-9.985 6.584-15.071 0 0 0.483-1.27 1.086-2.123a8.082 8.082 0 0 1 5.643-3.332c0.724-0.081 0.893-0.048 1.124-0.046zM630.385 482.009c3.724 0.288 4.28 1.302 5.378 2.443 3.06 3.178 2.439 8.287-0.792 11.984-6.901 7.983-12.296 17.147-17.636 26.332-7.603 13.082-14.611 26.537-20.641 40.437 0 0-5.267 6.824-10.944 3.959-3.312-1.672-5.134-5.871-4.054-9.452 0.442-1.468 0.729-1.817 1.077-2.609 10.014-22.644 21.554-44.93 36.328-64.457 1.498-1.981 3.058-3.917 4.728-5.755 0 0 3.256-2.944 6.556-2.882z" fill="#8C4A4D" p-id="1638"></path></svg>