<svg t="1618483344462" class="icon" viewBox="0 0 1024 1024" version="1.1" xmlns="http://www.w3.org/2000/svg" p-id="1897" width="1000" height="1000"><path d="M554.666667 896h-6.826667a42.666667 42.666667 0 0 1-35.84-42.666667v-42.666666h-42.666667a42.666667 42.666667 0 0 1-33.706666-16.213334 42.666667 42.666667 0 0 1-7.68-36.693333l42.666666-170.666667A42.666667 42.666667 0 0 1 512 554.666667h42.666667a42.666667 42.666667 0 0 1 34.56 17.92 42.666667 42.666667 0 0 1 5.973333 38.4L571.306667 682.666667H597.333333a42.666667 42.666667 0 0 1 34.56 17.92 42.666667 42.666667 0 0 1 5.973334 38.4l-42.666667 128A42.666667 42.666667 0 0 1 554.666667 896zM868.266667 434.346667a42.666667 42.666667 0 0 1-35.84-66.133334A128 128 0 0 0 853.333333 298.666667a128 128 0 0 0-249.173333-42.666667 42.666667 42.666667 0 1 1-81.066667-27.306667 213.333333 213.333333 0 1 1 381.013334 183.893334 42.666667 42.666667 0 0 1-35.84 21.76z" fill="#FE9517" p-id="1898"></path><path d="M771.84 712.96a42.666667 42.666667 0 0 1-40.106667-28.586667 42.666667 42.666667 0 0 1 25.6-54.186666l13.653334-5.973334A150.613333 150.613333 0 0 0 853.333333 490.666667a142.08 142.08 0 0 0-21.333333-76.373334 147.2 147.2 0 0 0-128-72.96h-98.56a42.666667 42.666667 0 0 1-37.12-21.333333 189.866667 189.866667 0 0 0-34.56-42.666667A210.346667 210.346667 0 0 0 384 213.333333a213.333333 213.333333 0 0 0-106.666667 398.506667 42.666667 42.666667 0 0 1-42.666666 73.386667A298.666667 298.666667 0 0 1 384 128a296.106667 296.106667 0 0 1 209.493333 85.333333 282.026667 282.026667 0 0 1 35.413334 42.666667h75.093333a232.533333 232.533333 0 0 1 200.96 113.92A228.693333 228.693333 0 0 1 938.666667 490.666667a235.946667 235.946667 0 0 1-128 209.92 219.733333 219.733333 0 0 1-23.04 9.813333 42.666667 42.666667 0 0 1-15.786667 2.56z" fill="#BBDEFB" p-id="1899"></path></svg>